PathFileType	4	(X/Y/Z)	RBDS021\RBDS021runT25.trc
DataRate	CameraRate	NumFrames	NumMarkers	Units	OrigDataRate	OrigDataStartFrame	OrigNumFrames
150.000000	150.000000	4	33	mm	150.000000	2812	4500
Frame#	Time	L.ASIS			L.Heel.Bottom			L.Heel.Lateral			L.Heel.Top			L.Iliac.Crest			L.MT1			L.MT5			L.PSIS			L.Shank.Bottom.Lateral			L.Shank.Bottom.Medial			L.Shank.Top.Lateral			L.Shank.Top.Medial			L.Thigh.Bottom.Lateral			L.Thigh.Bottom.Medial			L.Thigh.Top.Lateral			L.Thigh.Top.Medial			R.ASIS			R.ASY			R.Heel.Bottom			R.Heel.Lateral			R.Heel.Top			R.Iliac.Crest			R.MT1			R.MT5			R.PSIS			R.Shank.Bottom.Lateral			R.Shank.Bottom.Medial			R.Shank.Top.Lateral			R.Shank.Top.Medial			R.Thigh.Bottom.Lateral			R.Thigh.Bottom.Medial			R.Thigh.Top.Lateral			R.Thigh.Top.Medial			
		X1	Y1	Z1	X2	Y2	Z2	X3	Y3	Z3	X4	Y4	Z4	X5	Y5	Z5	X6	Y6	Z6	X7	Y7	Z7	X8	Y8	Z8	X9	Y9	Z9	X10	Y10	Z10	X11	Y11	Z11	X12	Y12	Z12	X13	Y13	Z13	X14	Y14	Z14	X15	Y15	Z15	X16	Y16	Z16	X17	Y17	Z17	X18	Y18	Z18	X19	Y19	Z19	X20	Y20	Z20	X21	Y21	Z21	X22	Y22	Z22	X23	Y23	Z23	X24	Y24	Z24	X25	Y25	Z25	X26	Y26	Z26	X27	Y27	Z27	X28	Y28	Z28	X29	Y29	Z29	X30	Y30	Z30	X31	Y31	Z31	X32	Y32	Z32	X33	Y33	Z33	

2813	18.74666666666667	1845.958127654191	1012.507097078049	875.1906570600486	1814.243354117451	111.3407946807276	944.5520124089472	1836.162764521496	120.3894273181805	892.1132125103667	1830.547415943694	154.5434640718912	934.3133864963366	1770.033100697691	1105.120120162753	825.9895412410497	2030.636224599962	86.56747113873072	942.4518584247747	1977.441295798953	70.61496987691338	841.3233582551518	1673.092769189933	1065.698919612888	946.9602863115841	1893.949026591964	239.0321029121549	858.1004949001749	1859.862117387483	247.730354993679	901.063429031488	1894.994994132672	318.1725688641723	842.8530975688783	1861.0244953363	327.3881542897143	883.5631520821083	1906.671759344459	689.0612214887803	816.8606506232907	1844.993678085326	662.833278762968	840.716638263035	1856.104615230867	785.3136540676676	798.6595512997338	1796.576014600972	759.9658811436751	820.6810933792499	1851.320721603361	997.5343620694797	1091.356786787749	1457.476926384073	102.7437934215857	1059.09550515287	1305.599999201602	194.5838344496516	995.0335761092567	1321.947279464759	185.0933214926461	1047.871279968355	1339.956963046337	219.8951772423848	1010.124489214106	1827.896409359251	1071.858687476855	1127.843461000092	1466.592560872386	59.30807242219217	1003.649030568743	1408.910716550975	65.25616017964292	1101.208900492469	1680.556142453505	1060.29314961021	1024.825996207614	1405.311652938626	269.6970846831074	1083.754070283122	1391.592659939432	286.8555381184275	1037.25986330254	1434.766892377823	347.1762701412799	1102.278046406939	1414.408652865143	361.762104761594	1055.269726828065	1643.957799140219	681.2047866967849	1139.783969224062	1587.430954815146	706.1445756803374	1100.196264962668	1674.369614581464	785.4551005509527	1155.484800688166	1622.559335296248	808.4428785815868	1114.587400368903	
2814	18.75333333333333	1848.32902508255	1014.834296224777	875.3666299357369	1835.822413920739	102.0973871337696	943.3765719977798	1857.783158634958	111.9894837163302	891.0600737765258	1849.782906027458	146.1525751948695	932.9043430699081	1772.584164779373	1108.125153864731	826.741037134622	2053.548647256388	89.59482253790922	943.6871990672576	2002.369688021249	69.58354954305207	842.0863164185785	1675.195434441745	1068.02899875694	947.5463592193348	1909.049293753468	234.1003681612032	856.7971130318347	1874.107806134013	241.2096408073423	899.4071159795651	1905.756297454625	312.9243522641029	840.9004526727153	1870.839702620849	320.5829834391079	881.2322431174348	1902.920792312318	687.1332074793763	816.1501526738853	1841.3183099486	662.162190321623	841.2462229915851	1853.699635049897	784.167448653453	798.2680337809564	1794.162494804099	760.0350710172535	821.5649349095289	1853.19429329273	999.7868091428372	1090.996639148921	1445.959368938165	108.3934684677435	1059.759495688848	1298.241062243698	205.8687860683091	994.2408390928485	1313.540838088302	195.8236142859811	1047.248845434209	1333.381222378133	229.8823205894846	1009.791403885069	1830.73897542283	1075.445316450915	1126.756488539481	1454.222789769116	63.9087188020679	1004.87534127123	1395.760672823231	71.59805466804622	1101.312039085436	1682.871795775166	1063.073452007748	1025.529389082235	1398.078284582428	276.7785617410345	1083.871910974083	1384.691125746418	293.8778847791816	1037.248868845371	1428.4028244875	353.9785015177812	1102.107314613131	1408.226188411818	368.6330553815644	1055.04331658797	1642.817349943113	685.3451356300219	1139.398779093257	1586.422086849412	711.5565651746269	1100.422562993787	1675.064067218432	788.9403749077775	1155.816119904435	1623.325691902938	813.1098440479352	1115.516917711259	
2815	18.76	1850.546286863127	1016.683687576983	875.3934560889585	1855.978397126063	94.40404812849087	942.2395889572363	1878.019814486915	104.9116817382055	890.0323981599671	1867.839947937577	139.0774939016923	931.4706186184211	1775.053247678479	1110.38690073752	827.387325356892	2074.406657004611	92.83388761175701	944.7316439431421	2025.263913691191	68.981887950464	842.800928237463	1677.141030424243	1069.736308347678	947.9435062579678	1922.978473561564	229.8333480250514	855.4840034694887	1887.41069556354	235.387410785769	897.8623628787784	1915.562279699718	308.1456450052215	839.0684408765703	1879.927945186487	314.2777147952547	879.1342854142332	1898.932099894723	684.5692280865889	815.2239884561898	1837.503309462975	660.9281684686709	841.7710231260322	1851.084841562199	782.354698093427	797.5633218374928	1791.622115938144	759.4931406829427	822.2831686112642	1854.9684157394	1001.814248654355	1090.567081633295	1434.202530145348	114.5286687169536	1060.230844123623	1290.995120571398	217.0613749459816	992.6856663754857	1305.028115207092	206.6602968209188	1045.922462583509	1326.746787663101	239.8333778665963	1008.75572050664	1833.130914821209	1078.587211407042	1125.719148992757	1441.760519943338	68.9754587012015	1006.07385392658	1382.337289645345	78.6056789582245	1101.157088095722	1684.958565804055	1065.330914933466	1026.077524222955	1390.977840796317	283.9928755024609	1083.595692341077	1378.054858602346	301.180117602529	1036.871464865634	1422.56155545257	360.6909610696413	1101.692394196408	1402.726248133584	375.6032144911237	1054.571391729465	1642.766783591117	688.6712260341006	1139.209478417788	1586.294432389813	715.8800054021875	1101.005857700371	1676.39211323123	791.7120988134808	1156.278505662145	1624.497656091222	816.8322118648713	1116.808335892446	
2816	18.76666666666667	1852.55653214535	1018.03091630687	875.2560341292545	1874.350838869555	88.2237020743223	941.3234294282729	1896.459176097801	99.0731426302047	889.1851955483077	1884.390580021373	133.2892233368184	930.1600152161162	1777.408131105933	1111.899466439868	827.8564545435034	2092.987850908086	96.00829547207276	945.476926321204	2045.702031912122	68.53878076205143	843.45017315899	1678.92337889723	1070.821804035025	948.1176190323741	1935.447617882114	226.1599423419485	854.253911136823	1899.530892924613	230.2265473231325	896.5632309703259	1924.172428389989	303.83128013377	837.4848479567398	1888.100204245877	308.4977901359817	877.4408323895917	1894.851400903946	681.5345151835148	814.0859310357939	1833.69317997192	659.2541115143478	842.2356416742923	1848.377351950382	780.0261615788914	796.554024977267	1789.07109263996	758.4537918098295	822.7891707070224	1856.643755990978	1003.601598851343	1090.061792980308	1422.230787712601	121.0712442069345	1060.504041715492	1283.859277441609	228.154707841156	990.4194910843968	1296.447378812148	217.5807289330291	1043.931876009398	1320.07550679847	249.7327373368411	1007.061212830075	1835.063366189638	1081.273835947236	1124.756243213693	1429.181654045283	74.45595435641523	1007.182123727123	1368.657335904066	86.24480490187301	1100.738473414126	1686.808380840506	1067.051148778382	1026.436637482659	1384.015640557956	291.3221784326417	1082.936173270963	1371.707287284429	308.7283911481328	1036.129379185202	1417.230920598347	367.2866217347781	1101.042890315658	1397.917428038364	382.6272994508566	1053.852436182311	1643.735527023482	691.1274377202053	1139.214435460613	1586.992314732765	719.0394973229049	1101.887577999366	1678.278497686321	793.7453036655894	1156.828310473965	1626.009890328398	819.5645096870207	1118.371141952747	
